<svg width="512" height="512" viewBox="0 0 512 512" fill="none" xmlns="http://www.w3.org/2000/svg">
<path d="M27.5 50C39.3741 50 49 40.3741 49 28.5C49 16.6259 39.3741 7 27.5 7C15.6259 7 6 16.6259 6 28.5C6 40.3741 15.6259 50 27.5 50Z" fill="#E6BB7A"/>
<path d="M335.5 173C350.688 173 363 160.688 363 145.5C363 130.312 350.688 118 335.5 118C320.312 118 308 130.312 308 145.5C308 160.688 320.312 173 335.5 173Z" fill="#E6BB7A"/>
<path d="M401 167C407.627 167 413 161.627 413 155C413 148.373 407.627 143 401 143C394.373 143 389 148.373 389 155C389 161.627 394.373 167 401 167Z" fill="#E6BB7A"/>
<path d="M188.5 87C200.374 87 210 77.3741 210 65.5C210 53.6259 200.374 44 188.5 44C176.626 44 167 53.6259 167 65.5C167 77.3741 176.626 87 188.5 87Z" fill="#E6BB7A"/>
<path d="M154.5 38C161.404 38 167 32.6274 167 26C167 19.3726 161.404 14 154.5 14C147.596 14 142 19.3726 142 26C142 32.6274 147.596 38 154.5 38Z" fill="#E6BB7A"/>
<path d="M74.5 57C81.4036 57 87 51.4036 87 44.5C87 37.5964 81.4036 32 74.5 32C67.5964 32 62 37.5964 62 44.5C62 51.4036 67.5964 57 74.5 57Z" fill="#E6BB7A"/>
<path d="M99 315C108.941 315 117 306.941 117 297C117 287.059 108.941 279 99 279C89.0589 279 81 287.059 81 297C81 306.941 89.0589 315 99 315Z" fill="#E6BB7A"/>
<path d="M77 260C92.464 260 105 247.464 105 232C105 216.536 92.464 204 77 204C61.536 204 49 216.536 49 232C49 247.464 61.536 260 77 260Z" fill="#E6BB7A"/>
<path d="M50 223C56.6274 223 62 217.404 62 210.5C62 203.596 56.6274 198 50 198C43.3726 198 38 203.596 38 210.5C38 217.404 43.3726 223 50 223Z" fill="#E6BB7A"/>
<path d="M151 408C176.405 408 197 387.181 197 361.5C197 335.819 176.405 315 151 315C125.595 315 105 335.819 105 361.5C105 387.181 125.595 408 151 408Z" fill="#E6BB7A"/>
<path d="M194.5 395C209.688 395 222 382.688 222 367.5C222 352.312 209.688 340 194.5 340C179.312 340 167 352.312 167 367.5C167 382.688 179.312 395 194.5 395Z" fill="#E6BB7A"/>
<path d="M114 148C136.091 148 154 130.091 154 108C154 85.9086 136.091 68 114 68C91.9086 68 74 85.9086 74 108C74 130.091 91.9086 148 114 148Z" fill="#E6BB7A"/>
<path d="M71 124C86.464 124 99 111.464 99 96C99 80.536 86.464 68 71 68C55.536 68 43 80.536 43 96C43 111.464 55.536 124 71 124Z" fill="#E6BB7A"/>
<path d="M123.5 180C137.031 180 148 168.807 148 155C148 141.193 137.031 130 123.5 130C109.969 130 99 141.193 99 155C99 168.807 109.969 180 123.5 180Z" fill="#E6BB7A"/>
<path d="M382 506C449.931 506 505 450.931 505 383C505 315.069 449.931 260 382 260C314.069 260 259 315.069 259 383C259 450.931 314.069 506 382 506Z" fill="#E6BB7A"/>
<path d="M259 469C279.435 469 296 452.435 296 432C296 411.565 279.435 395 259 395C238.565 395 222 411.565 222 432C222 452.435 238.565 469 259 469Z" fill="#E6BB7A"/>
<path d="M372.5 327C411.436 327 443 295.436 443 256.5C443 217.564 411.436 186 372.5 186C333.564 186 302 217.564 302 256.5C302 295.436 333.564 327 372.5 327Z" fill="#E6BB7A"/>
<path d="M268.5 346C304.122 346 333 317.122 333 281.5C333 245.878 304.122 217 268.5 217C232.878 217 204 245.878 204 281.5C204 317.122 232.878 346 268.5 346Z" fill="#E6BB7A"/>
<path d="M188 284C213.405 284 234 263.181 234 237.5C234 211.819 213.405 191 188 191C162.595 191 142 211.819 142 237.5C142 263.181 162.595 284 188 284Z" fill="#E6BB7A"/>
<path d="M222.5 234C256.466 234 284 206.466 284 172.5C284 138.534 256.466 111 222.5 111C188.534 111 161 138.534 161 172.5C161 206.466 188.534 234 222.5 234Z" fill="#E6BB7A"/>
</svg>
