<svg width="512" height="512" viewBox="0 0 512 512" fill="none" xmlns="http://www.w3.org/2000/svg">
<path d="M46.5999 367C62.4265 373.5 69.5959 376.069 94 376.211C90.9809 388.544 90.3376 395.025 78.2 406.916C48.7639 410.421 30.0345 404.637 15 400.775C29.3134 390.749 40.8442 385.874 46.5999 367Z" fill="#E6E619"/>
<path d="M331.258 357C338.739 375.138 345.781 383.444 363 395.216C338.352 409.238 322.926 405.056 293.086 401.673C280.882 389.578 277.812 382.506 274 369.764C299.851 370.579 311.981 367.104 331.258 357Z" fill="#E6E619"/>
<path d="M363.14 241.983C368.929 233.818 373.962 234.195 382.166 241.983C397.02 256.08 389.585 289.245 385.337 305.777C371.799 358.47 47.6374 381.599 11.1534 334.484C5.39989 327.052 -5.32842 307.849 20.6667 312.156C20.6667 312.156 195.077 350.432 312.404 312.156C312.824 312.021 350.167 299.979 356.798 286.638C363.464 273.223 352.974 256.324 363.14 241.983Z" fill="#E6E619"/>
<path d="M84.6251 243C113.767 259.968 130.347 268.672 161 280.544V311.831C128.116 314.221 109.942 313.325 78.2605 305.574C75.4983 280.409 77.127 266.739 84.6251 243Z" fill="#E6E619"/>
<path fill-rule="evenodd" clip-rule="evenodd" d="M431.459 204.119C440.876 199.577 453.482 197.752 462.919 204.119C472.357 210.487 489.831 229.077 500.67 261.429C504.821 274.379 507.344 279.668 506.962 293.268C506.579 306.868 495.884 315.46 481.794 312.371C464.127 305.897 456.516 301.493 444.043 293.268L434.605 286.9C434.605 286.9 429.92 285.639 425.167 286.9C417.637 288.899 409.602 299.42 409.438 299.635C413.73 283.203 411.296 263.998 409.438 258.245C407.579 252.491 400 242.326 400 242.326C405.727 223.402 422.044 208.66 431.459 204.119ZM469.211 248.693C466.85 229.828 453.928 220.818 440.897 229.59V242.326C449.287 250.406 458.044 251.298 469.211 248.693Z" fill="#E6E619"/>
<path d="M261.286 236C269.177 261.383 272.225 276.545 274 306.043C239.263 312.38 219.774 314.049 185 312.411V280.573C215.339 271.387 231.91 259.605 261.286 236Z" fill="#E6E619"/>
<path d="M61 247C56.2627 266.989 54.5286 278.479 54.8549 300C38.4272 299.076 31.772 297.686 24.1294 293.765C23.5229 278.668 24.9633 271.208 30.2745 259.471C42.7964 250.972 49.4724 248.615 61 247Z" fill="#E6E619"/>
<path d="M280 230.556C297.396 227.326 310.324 228.994 337.767 236.789C341.827 252.377 342.321 260.688 337.767 274.185C324.738 285.96 312.769 292.45 296.047 296L295.94 294.965C293.354 268.983 291.726 252.593 280 230.556Z" fill="#E6E619"/>
<path d="M229.455 174C240.429 189.97 244.177 199.834 248 218.5C225.776 240.733 210.795 250.378 180 263V186.714C199.465 186.054 210.298 183.322 229.455 174Z" fill="#E6E619"/>
<path d="M161 255C132.672 243.792 117.995 236.581 96 220.5C98.9822 204.868 101.682 197.159 109 186C130.268 186.928 141.997 187.257 161 186V255Z" fill="#E6E619"/>
<path d="M71.8333 147C76.2641 156.868 85.7432 166.743 94 172.92C83.467 190.949 75.7207 202.004 71.8333 224.76L37 228C41.5461 198.574 56.7815 173.302 71.8333 147Z" fill="#E6E619"/>
<path d="M270.077 133C298.547 155.57 314.279 175.075 330 211C308.346 203.785 294.306 202.335 266.923 204.76C264.409 186.569 260.637 176.916 248 161.08C259.956 152.676 262.622 146.878 270.077 133Z" fill="#E6E619"/>
<path d="M161 168C116.513 165.862 101.782 157.52 85 136C111.271 118.826 127.871 111.796 161 104V168Z" fill="#E6E619"/>
<path d="M180 104.45C207.884 102.718 222.714 105.788 248 117.16C235.993 147.943 222.288 159.969 180 168V104.45Z" fill="#E6E619"/>
</svg>
