<svg xmlns="http://www.w3.org/2000/svg" width="164" height="164" viewBox="0 0 1254 1254"><path d="m602 548-32 14-24 24-12 32v21l4 16 10 18 18 18 26 14 14 4h37l20-6 22-12 24-28 8-24v-21l-4-16-14-24-32-24-30-8zM74 88l46 81 18 25 4 11 14 19 144 240v9l-3 3h-15l-93-42-15-4-17-10-20-8-5 1 259 208 11 14-15 15-11 6-254 204 5 1 26-10 13-8 130-54 11 2 1 10-246 400 15-6 15-12 71-42 15-12 7-2 15-12 23-12 15-12 55-32 15-12 7-2 137-88h11l5 5v9l-50 117-15 43 221-274 8 3 22 31 10 9 184 231h3l-66-160v-9l5-5h11l149 96 109 66 15 12 87 52 15 12 15 6-246-398v-11l12-3 167 72 7-1-280-223 1-8 269-216-5-1-147 64h-13l-5-8 228-380-67 38-9 8-77 44-9 8-11 4-9 8-67 38-9 8-11 4-9 8-11 4-89 56-14 6-10-1v-11l78-171-1-5-225 274-8-1-34-45-12-11-6-11-170-206-3 1 78 171 2 15-12 1zm546 355 33 4 20 10 15 15 12 28 2 27 24 11 6 10 2 17h21l32 10 19 17 10 22v27l-6 16-10 14-11 9-18 8-37 2-2 27-11 13-15 4-4 33-12 24-15 13-28 10h-41l-22-6-10-6-13-13-8-14-6-24v-15l-4-4-15-4-7-9-2-27-29-2-26-10-15-13-12-24v-31l10-20 15-15 12-6 24-6h19l2-13 6-12 5-5 21-8 4-35 10-20 21-19z" fill="var(--icon-fill, #000)" stroke="var(--icon-fill, #000)" stroke-width="2" stroke-linejoin="round"/></svg>