<svg xmlns="http://www.w3.org/2000/svg" width="164" height="164" viewBox="0 0 1254 1254"><path d="m1000 944-20 10-16 16-10 26 2 27 8 18 20 20 22 8 33-2 24-14 12-16 6-14v-35l-10-20-20-18-24-8zm4-324-20 8-16 14-10 16-4 16v17l10 28 16 16 28 12h19l16-4 14-8 18-20 6-16v-33l-12-24-20-16-16-6zM756 212l-1 96H548v39l208 1v315l-112 3 2 37 110 1v217l-208 1v39h207l1 64h165v-39l-126-1V704l126-1v-39l-126-1V252l126-1v-39zm246-44-18 8-16 14-10 16-4 16v17l10 28 16 16 14 8 16 4h17l20-6 12-8 16-18 6-16v-33l-12-24-16-14-20-8zm-642-16-24 10-26 22-18 26-12 28v9l-6 17v53l6 17v9l18 38 28 36-34 7-32 14-28 28-22 40-16 46-14 78-6 68v87l88 1 24 317h197l20-317 86-1v-81l-8-106-8-46-10-34-18-40-14-20-16-16-24-14-18-6-38-5 32-42 16-40 4-24v-41l-10-42-20-36-34-30-26-10z" fill="var(--icon-fill, #000)" stroke="var(--icon-fill, #000)" stroke-width="2" stroke-linejoin="round"/></svg>