<svg xmlns="http://www.w3.org/2000/svg" width="164" height="164" viewBox="0 0 1254 1254"><path d="m1125 770-5 2-8 13-21 21-45 30-4 13-32 60-38 50-35 35-32 26-48 30-43 18-26 37-34 38 23-6 56-22 68-36 56-40 50-48 32-40 44-72 22-48zm-1001 0 14 47 28 64 40 66 30 38 60 58 54 38 60 32 83 30-38-44-18-29-57-26-34-22-40-32-23-23-46-60-30-56-6-17-37-22zm484-224-30 12-16 14-10 14-10 26v35l8 22 24 28 30 14 29 2 18-4 16-8 24-22 14-30 2-29-10-32-22-26-22-12-14-4zm148-436 28 28 16 22 10 21 51 24 46 30 34 28 33 33 44 58 32 60v5l41 26 29 29 6 11h3l-24-69-24-50-30-50-40-52-44-44-62-46-76-40-60-22zm-265 0-37 10-88 40-58 38-60 54-40 48-40 64-36 80-12 41 30-34 30-22 11-4 8-8v-5l30-56 22-32 32-38 33-31 42-32 36-22 41-18 24-39 27-29 5-2zm127-12-30 4-32 10-30 18-26 26-18 28-16 40-10 44-6 63-50-1-20 8-20 24-8 26-2 33-3 3-51-2-28 4-32 10-40 22-38 34-20 30-22 52-6 30v43l8 38 10 28 24 46 24 28 40 24 30 10 62 8 37-2 5 48 8 20 14 16 28 10 46-3 6 71 12 50 18 40 12 18 26 26 36 20 20 6 24 4h47l50-12 28-16 24-22 18-26 20-48 12-62 2-47 3-3h9l15 4h21l24-8 20-24 6-20 3-42h67l40-8 46-20 32-26 22-36 20-48 8-34 2-43-6-36-10-28-14-28-30-40-36-28-48-22-42-8-53 2-3-3v-25l-4-20-10-22-10-12-24-12-49 2-3-3-4-53-12-54-22-50-16-22-26-24-30-16-26-8zM384 383l159 96 9 8h5v-5l-32-69v-5l4-1 93 116 9-6 89-110 2 8-32 71 5 1 165-104 4 1v5l-16 24-6 5-92 136v3h7l73-26h5l1 4-116 91v5l15 10 95 77v3l-4 1-63-24h-5v5l70 116 8 9 14 27 8 9 1 8-166-102-1 7 30 69-4 2-93-122-7 4-87 118-4-1v-5l30-67v-5h-3L391 872l-4-1 104-170v-3h-5l-68 24-1-4 102-79 10-11-118-95 8-2 73 26h5v-5l-6-5-66-101-40-55z" fill="var(--icon-fill, #000)" stroke="var(--icon-fill, #000)" stroke-width="2" stroke-linejoin="round"/></svg>