<svg xmlns="http://www.w3.org/2000/svg" width="164" height="164" viewBox="0 0 1254 1254"><path d="m346 1149 141-42 14-7-55-16-64-26zM182 518l-10 20v27l6 12 14 14 216 102 9-6 75-102 6 1 8 16 14 44 2 49-6 30-24 52-23 29-87-2-44 6-30 8-26 12-24 22-8 22 2 25 18 34 20 22 56 42 68 32 72 26 86 20 62 8 63 4 204 64v-7l-48-114-400-133 10-35 8-1 154 52 151-52h7l13 33-1 4-105 34v3l210 70 15-8 46-34 30-32 14-24 4-14-2-31-10-16-20-16-20-10-26-8-54-8-91 2-31-49-14-44-2-45 6-34 16-42 6-3 73 98 9 6 216-102 14-14 6-12v-27l-10-20-12-12-24-12-29-2-134 56-95-148-12-14-16-12-21-10-27 30-14 10-32 14-37 4-30-6-18-8-26-18-24-26-22 12-24 22-97 150-134-56h-21l-14 4-18 10zm430-414-28 12-28 28-18 34-10 40v7h5l29-12 26-6h15l1 38-34 7-38 16-2 9 6 24 14 30 30 34 28 14 31 2 30-10 26-22 22-36 10-32v-9l-18-10-26-10-35-6-1-38 28 1 34 10 15 8h5v-15l-18-54-12-18-22-22-32-14z" fill="var(--icon-fill, #000)" stroke="var(--icon-fill, #000)" stroke-width="2" stroke-linejoin="round"/></svg>