<svg xmlns="http://www.w3.org/2000/svg" width="164" height="164" viewBox="0 0 1254 1254"><path d="M547 934h-7l-21 10-44 14-20 4h-35l-24 45-26 36-41 43-45 32v3h179l28-40 30-52 18-46 8-36zm92-94-59-24-42-26-5-6-9-2-26 14-20 22-10 22-6 27-22 58 47-10 52-18 62-30zm-24-475v-11l-8-14-79 4 4 17 12 16h53l12-4zm122-35-10-7-10-15h-5l-53 18-15 2v5l6 11 2 21h21l30-8 16-8 18-16zm86-110-40-28-70-40-44-22h-13l-113 28h-9l-16 18-18 32-10 33-4 5v13l18 46 33 2-12-32v-31l4-1 5 16 14 26 22 20 21-2-14-38v-19l3-9 4 3 6 21 12 20 16 16h7l24-8-10-28 1-34 4 1 12 33 19 22 30-10-2-21 6-34 3-3 33 6 1 8-6 23v21l8 20 22 14h25l9-8h5l17 25-1 6-19 10-2 5 22 33 16 34 10 28 8 38-2 57-10 32-10 18-6 5v5l30 29 24 31-8-1-43-28-92-48-44-14h-43l-30 6-38 14-42 22-4 5 34 39-2 4-151-96-40-20-30-10-28-4-45 4-40 12-44 22-70 50v509h73l54-28 58-46 38-42 34-50 30-58 22-73 18-32 13-15 20-16 42-20h7l27 22 44 26 48 18 30 6 43 2 38-4 58-12 59-20 4 1-3 6-26 18-80 42-40 6-57-2-7 10-22 18-47 26v3l28 6 56 6h49l56-6 68-16 46-16 50-22v-3l-39-6-3-4 7-3 54-4h139l4-4 8-40v-67l-10-50-20-56-34-66-44-68-128-169-52-76-6-13z" fill="var(--icon-fill, #000)" stroke="var(--icon-fill, #000)" stroke-width="2" stroke-linejoin="round"/></svg>