<svg xmlns="http://www.w3.org/2000/svg" width="164" height="164" viewBox="0 0 1254 1254"><path d="M742 828v331h41V830zm-90 0-2 125 41 2V828zm-90 0v205l-16 7-18 18-10 22v31l8 20 16 18 24 12 25 2 26-8 22-20 10-22 2-19-6-26-10-16-20-16-12-5V828zm-86 0v127h41V828zm386-120v41l106 1v225l-18 9-20 22-8 22v23l10 26 24 22 30 8 25-4 16-8 20-22 8-24v-19l-12-30-16-16-18-9V708zm-465 0h-87v199l-22 11-12 12-10 18-4 25 6 26 10 16 16 14 20 8h31l20-8 22-22 8-20v-31l-8-20-16-18-20-11V752l3-3h43zm-127-86 2 41 125-2v-39zm895 20-8-24-20-22-10-6-22-6-25 2-18 8-27 28H862l2 41h167l13 28 16 16 24 10h29l26-12 12-12 10-18 4-16zM862 532v41h127l-2-41zm-465 0H146v211l-20 11-18 18-10 24 2 35 8 16 12 14 28 14h33l22-10 16-16 10-20 2-29-10-26-16-18-18-9V576l3-3h207zm43-126v379h377l2-377zm172 37h39l3 3v127l123 2 1 40-3 3H614l-3-3zm-130 0h39l3 3v185l76 76h177v41H582l-27-28h-5l-2 9-9 11-16 8-23-2-15-13-6-12 2-23 11-15 17-9-28-27zM90 310v41l158 1v131h149v-41l-106-1-2-131zm1061-40-12-12-26-12h-29l-24 10-10 8-14 22-4 14 2 33 8 16 12 14 28 15v61l-3 3H862v41h261V374l14-7 16-16 6-10 6-22-2-25zm-499-34-2 125 41 2V236zM752 94l-22 8-20 18-12 26v29l12 26 14 14 18 11v137h39l2-139 18-7 18-18 10-22 2-23-6-22-16-22-26-14zm-498 22-14 26v37l14 26 14 12 18 8 29 2 20-6 22-18 10-16v-5l5-3h101l3 3v181h41V138H368l-9-18-14-14-28-12h-23l-14 4-18 10zm310-24-2 271h41V92z" fill="var(--icon-fill, #000)" stroke="var(--icon-fill, #000)" stroke-width="2" stroke-linejoin="round"/></svg>