<svg xmlns="http://www.w3.org/2000/svg" width="164" height="164" viewBox="0 0 1254 1254"><path d="m274 1018 12 15 22 18 54 36 56 28 73 26-30-32-26-39-51-22-46-30-25-22-13 4zm703 0-30-20-11-4-13 14-56 38-57 26-14 25-36 42 37-10 82-38 58-38zM750 874l-2 7 10 17v7l14 29 2 11 21 44 4-14 4-57 14 1v-3zm-249 0-67 42v3l9-2 3 3 4 63 4 8h3l32-78 2-11 12-23zm123-70-161 200-7 2 8 35 18 40 32 38 16 12 36 16 32 6 37 2 54-10 26-12 14-10 24-24 14-20 20-48 4-25-12-9-18-27-14-13-6-11-56-67-14-21-20-21-22-31zm497-28-40 40-33 20-28 59-22 34-12 13 6 17 16 24 9-6 16-20 38-58 26-52 22-58zm-995-2 24 69 26 54 30 48 30 38 5 2 24-39-32-43-24-44-8-23-23-12-18-14zm476-22 4 5 14 2 27-4-20-29h-5zM498 606l-6 12v19l6 12 5 2 22-16 4-7-20-18zm253-2-9 4-24 20 26 23h7l6-12v-25zm-135-58-38 14-16 14-12 18-6 16-2 31 10 32 22 24 22 12 14 4h29l32-14 20-20 8-14 6-20v-29l-12-30-18-20-26-14zm-6-46-2 7 14 16h3l16-18-2-5-10-2zm314-78-42 66v5l-6 5-4 11h7l107-48h7l3 3v7l-46 35-13 14-19 12-21 20-21 14-3 6-7 2-13 14-51 38-4 7 206 165-3 8h-7l-128-54v5l12 15 32 55 41 2 54-8 24-8 24-12 32-24 24-38 24-60 6-30v-47l-10-42-20-42-18-26-20-20-30-22-32-16-50-12zm-634 0-56 14-42 24-30 26-26 38-20 48-6 26v53l6 30 14 38 30 54 20 18 30 18 42 14 44 6h41l20-28 20-37 6-5v-7l-126 54h-7l-3-3v-7l204-161v-5L253 469l3-8h7l71 32 15 4 17 10 13 2-52-87zm559-92-23-2-26 4-3-5-2-41-3-2-42 92-6 19 15-6 11-10 9-2 9-8 59-34zm-395-48-5 50-39-4-10 2v3l105 62 2-3-12-23-6-19-4-3-20-51-6-7v-5zm560-8-24 41 32 43 26 48 4 13 41 26 34 36-20-57-24-52-46-74-16-20zm-777-2h-5l-18 22-38 58-28 56-26 71 36-36 37-22 14-33 10-13 10-21 22-32 8-7-4-13zm523-160 26 26 26 43 37 16 40 24 38 28 23 22 41-24-40-39-68-46-62-30zm-271 0-43 12-88 42-48 32-52 47 30 20 13 4 25-24 58-40 51-24 24-39zm125-14-28 4-36 12-28 18-20 20-12 16-16 32-14 46v13l12 11 6 11 74 87 6 11 10 9 6 11 4 1 42 55 7 2 54-64 22-31 22-23 6-11 22-23 16-23 20-21v-11l-20-62-10-13-4-11-32-34-14-10-38-16-36-6z" fill="var(--icon-fill, #000)" style="stroke:var(--icon-fill, #000)" stroke-width="none" stroke-linejoin="round"/><path d="m216 228 6 17 6 5 8 17-32 37-38 62-34 76-14 47 36-40 45-30 16-37 24-40 18-24 8-3 51 81 4 11 8 9 2 11 18 25 32 57-14-1-17-10-15-4-71-32h-7l-2 7 187 150 11 11v5L248 796v7l9 2 95-42 11-2 17-10 4 1v7l-6 5-20 37-20 27 2 5-71 113-10-9-20-28-30-56-6-17-35-22-31-29-8-13-7-4 16 51 30 68 44 70 30 33-20 35-12 15v13l54-34h5l49 42 54 34 78 36 45 12v-3l-36-37-20-33-31-12-30-16-5-6-7-2-40-28-13-16 113-73 7 2 3-6 65-40 3 6-12 23-2 11-32 78-6-1 4 6v9l7-2 58-70 6-11 6-3 28-39 6-3 2-7 55-67 6 3 6 11 36 41 14 21 10 9 92 117 5 2 2-17-6-7-32-78v-7l-10-17 3-8 65 40 3 6 13 2 105 67v5l-9 9-38 28-26 16-53 24-26 39-32 34 45-12 86-40 52-34 47-40 43 26 11 10 7-2-2-9-30-45-2-9 30-35 30-46 28-54 30-85h-5l-6 11-31 31-33 20-8 8-6 17-30 56-16 22-12 11-69-111 2-5-4-1-22-39-22-31v-5l4-1 119 52 13 2 2-7-206-165 5-8 51-38 13-14 7-2 3-6 21-14 21-20 19-12 13-14 45-34v-7l-9-2-107 48-8-1 40-71 12-15-2-5 65-103 10 9 26 38 30 61 35 20 27 25 12 19 5 2-10-35-32-76-48-78-26-31 2-9 18-27-4-7-35 22-39-38-66-46-74-36-63-20v3l34 33 24 39 25 10 48 28 36 26 29 28-89 55-11 2-71 46-9 2-11 10-15 6-1-6 22-45v-5l4-3 20-51 3-3 3 2-4-7 8-16-2-4-7-2v5l-20 21-16 23-22 23-6 11-22 23-22 31-55 65-8-3-42-55-4-1-6-11-10-9-6-11-30-33-6-11-14-13-30-41-6-3-6-8v-7l-2 6-7 2 8 16-2 5 10 15 20 51 4 3 6 19 12 23-3 4-93-54-5-6-21-8-85-53 3-8 44-36 52-32 37-16 28-45 28-25 2-5h-7l-52 18-86 42-56 40-39 38h-5l-27-18zm57 790 27-19 13-4 25 22 46 30 51 22 27 40 30 32-4 1-46-16-80-38-54-36-22-18zm705 0-41 36-58 38-82 38-32 10-6-1 30-34 21-34 57-26 56-38 13-14 11 4zm143-243-1 14-4 5-6 23-18 44-6 7-14 31-38 58-16 20-10 7-17-25-6-17 12-13 22-34 28-59 34-21zm-995-2 34 36 18 14 24 13 8 23 24 44 32 43-25 40-6-3-30-38-30-48-38-84-8-29-4-5zm574-101v19l-9 9-11 4-2 21-6 16-17 15-26 4-23-2-5-4-5 2-10-6-13-21-4-27-13-4-7-11v-11l4-1 15 18 14 10 26 10 19 2 20-4 22-10 29-30zm-84-127 33 4 26 14 19 21 12 30v29l-6 20-8 14-21 21-32 14h-29l-14-4-22-12-23-25-10-32 2-31 6-16 12-18 17-15zm-125 73 4-10 6-3-2-5 15-11 16-4h17l4-6 2-13 20-9 4-31 13-19 10-6h5l2 4 3-6 19-2 10 2 3 4 9-2 17 15 8 20v19l15 6 7 7 2 15 35 6 15 11 8 14v25l-6 12-6 1 2 5-5 5-24 8h-19l-1-6 8-19v-31l-10-28-12-16-18-14-34-12h-19l-22 6-18 10-22 22-12 34v25l8 21-1 8-27-2-16-8-3-6 4-4-5 2-9-15zm523-345 8 5 16 20 46 74 32 72 10 30-1 6-32-34-42-27-4-13-26-48-32-43zm-777-2 19 31 4 13-8 7-22 32-10 21-10 13-14 33-38 23-34 34-1-8 42-100 48-76 19-23zm522-159 6-1 36 12 82 38 68 46 41 40-42 25-23-22-38-28-40-24-37-16-27-44zm-269 0-30 30-25 40-51 24-58 40-25 24-13-4-31-21 53-48 48-32 88-42 38-12z" fill="none" vector-effect="non-scaling-stroke"/></svg>